name rise30.2954peak35.7071fall66.7804.mot
datacolumns 19
datarows 14
range 13.35162000000000 13.37328800000000
endheader
time	ground_force1_vx	ground_force1_vy	ground_force1_vz	ground_force1_px	ground_force1_py	ground_force1_pz	ground_force2_vx	ground_force2_vy	ground_force2_vz	ground_force2_px	ground_force2_py	ground_force2_pz	ground_torque1_x	ground_torque1_y	ground_torque1_z	ground_torque2_x	ground_torque2_y	ground_torque2_z	
13.35162000000000	-42.56870600000000	791.05112499999996	54.49174700000000	0.12373900000000	0.00000000000000	0.14344000000000	-4.18193500000000	35.22386500000000	4.17934700000000	0.33252700000000	0.00000000000000	-0.07697900000000	0.00000000000000	27.65506100000000	0.00000000000000	0.00000000000000	2.50102300000000	0.00000000000000	
13.35328500000000	-43.07756200000000	788.08490500000005	54.07605200000000	0.12281900000000	0.00000000000000	0.14329700000000	-4.76874200000000	42.18762000000000	4.80672500000000	0.33609200000000	0.00000000000000	-0.07659300000000	0.00000000000000	27.54346700000000	0.00000000000000	0.00000000000000	2.90501600000000	0.00000000000000	
13.35494900000000	-43.59955000000000	785.01867900000002	53.64067900000000	0.12191100000000	0.00000000000000	0.14315100000000	-5.29926000000000	49.32079600000000	5.39242800000000	0.33946300000000	0.00000000000000	-0.07624900000000	0.00000000000000	27.43291100000000	0.00000000000000	0.00000000000000	3.29068100000000	0.00000000000000	
13.35662000000000	-44.13473900000000	781.85295499999995	53.18591400000000	0.12101700000000	0.00000000000000	0.14300100000000	-5.75518100000000	56.50787200000000	5.91963600000000	0.34266100000000	0.00000000000000	-0.07594200000000	0.00000000000000	27.32361800000000	0.00000000000000	0.00000000000000	3.64734200000000	0.00000000000000	
13.35828700000000	-44.68314000000000	778.58816600000000	52.71207800000000	0.12013700000000	0.00000000000000	0.14284800000000	-6.12232800000000	63.65242200000000	6.37541300000000	0.34570400000000	0.00000000000000	-0.07566600000000	0.00000000000000	27.21579200000000	0.00000000000000	0.00000000000000	3.96649700000000	0.00000000000000	
13.35995800000000	-45.24470400000000	775.22465899999997	52.21953500000000	0.11927100000000	0.00000000000000	0.14269100000000	-6.39113800000000	70.68197000000001	6.75118000000000	0.34860700000000	0.00000000000000	-0.07541900000000	0.00000000000000	27.10962300000000	0.00000000000000	0.00000000000000	4.24218800000000	0.00000000000000	
13.36162400000000	-45.81931900000000	771.76269600000001	51.70868400000000	0.11842100000000	0.00000000000000	0.14253000000000	-6.55669600000000	77.55011600000000	7.04275700000000	0.35138000000000	0.00000000000000	-0.07519600000000	0.00000000000000	27.00527700000000	0.00000000000000	0.00000000000000	4.47110500000000	0.00000000000000	
13.36328900000000	-46.40680900000000	768.20244200000002	51.17996300000000	0.11758700000000	0.00000000000000	0.14236700000000	-6.61839300000000	84.23616600000000	7.25004700000000	0.35403400000000	0.00000000000000	-0.07499600000000	0.00000000000000	26.90290300000000	0.00000000000000	0.00000000000000	4.65245400000000	0.00000000000000	
13.36494900000000	-47.00693000000000	764.54397200000005	50.63384400000000	0.11676900000000	0.00000000000000	0.14219900000000	-6.57928900000000	90.74271000000000	7.37643000000000	0.35657600000000	0.00000000000000	-0.07481600000000	0.00000000000000	26.80262600000000	0.00000000000000	0.00000000000000	4.78764700000000	0.00000000000000	
13.36662300000000	-47.61937100000000	760.78725599999996	50.07083300000000	0.11596800000000	0.00000000000000	0.14202900000000	-6.44529000000000	97.09170399999999	7.42797900000000	0.35901400000000	0.00000000000000	-0.07465400000000	0.00000000000000	26.70454900000000	0.00000000000000	0.00000000000000	4.87985400000000	0.00000000000000	
13.36828800000000	-48.24374800000000	756.93216700000005	49.49146900000000	0.11518400000000	0.00000000000000	0.14185600000000	-6.22423900000000	103.31964300000000	7.41259400000000	0.36135200000000	0.00000000000000	-0.07450900000000	0.00000000000000	26.60875200000000	0.00000000000000	0.00000000000000	4.93349300000000	0.00000000000000	
13.36995600000000	-48.87960800000000	752.97847500000000	48.89632200000000	0.11441700000000	0.00000000000000	0.14167900000000	-5.92501500000000	109.47238299999999	7.33913000000000	0.36359500000000	0.00000000000000	-0.07437900000000	0.00000000000000	26.51529100000000	0.00000000000000	0.00000000000000	4.95369900000000	0.00000000000000	
13.37162100000000	-49.52642200000000	748.92584699999998	48.28599100000000	0.11366800000000	0.00000000000000	0.14149900000000	-5.55669900000000	115.60009100000001	7.21660500000000	0.36574800000000	0.00000000000000	-0.07426300000000	0.00000000000000	26.42420000000000	0.00000000000000	0.00000000000000	4.94582700000000	0.00000000000000	
13.37328800000000	-50.18358700000000	744.77384900000004	47.66110200000000	0.11293700000000	0.00000000000000	0.14131700000000	-5.12788000000000	121.75270700000000	7.05352400000000	0.36781400000000	0.00000000000000	-0.07416100000000	0.00000000000000	26.33548500000000	0.00000000000000	0.00000000000000	4.91501900000000	0.00000000000000	
